<?xml version="1.0" encoding="UTF-8"?>
<svg width="710px" height="157px" viewBox="0 0 710 157" version="1.1" xmlns="http://www.w3.org/2000/svg" xmlns:xlink="http://www.w3.org/1999/xlink">
    <!-- Generator: Sketch 47 (45396) - http://www.bohemiancoding.com/sketch -->
    <title>sexton-logo</title>
    <desc>Created with Sketch.</desc>
    <defs></defs>
    <g id="Page-1" stroke="none" stroke-width="1" fill="none" fill-rule="evenodd">
        <g id="sexton-logo" fill-rule="nonzero" fill="#010101">
            <path d="M248.585,56.403 L253.474,56.403 L253.474,60.924 C258.36,57.033 263.897,54.93 268.784,54.93 C277.271,54.93 284.096,60.504 284.096,70.598 L284.096,92.364 C284.096,92.364 284.096,92.575 283.91,93.206 C284.096,94.782 284.28,98.253 286.033,99.094 C287.14,99.725 288.615,100.146 290.367,100.568 L290.367,109.189 L263.526,109.189 L263.526,100.568 C267.677,100.568 268.784,97.097 268.784,92.996 L268.784,74.911 C268.784,70.179 268.414,67.551 265.558,66.919 C260.668,65.658 254.763,71.967 254.763,72.176 L254.763,91.946 C254.763,95.836 254.763,97.729 255.78,98.675 C256.332,99.305 257.809,100.358 259.929,100.569 L259.929,109.19 L232.167,109.19 L232.167,100.569 C232.167,100.569 236.503,100.358 238.162,98.465 C239.084,97.307 239.452,94.783 239.452,92.154 L239.452,74.07 C239.452,69.338 235.856,67.657 232.167,67.657 L232.167,59.034 L248.585,56.403 Z" id="Shape"></path>
            <path d="M236.525,84.321 C236.525,99.252 226.932,111.449 210.975,111.028 C192.344,110.607 186.625,98.726 185.518,85.793 C184.597,70.966 192.344,55.93 210.607,55.93 L212.543,55.93 C231.268,56.982 236.525,71.176 236.525,84.321 M202.306,81.482 C202.306,82.427 202.306,83.48 202.121,84.741 C202.306,92.732 204.797,100.513 211.16,100.513 C217.986,100.513 220.291,92.943 219.923,81.482 C219.555,72.228 216.51,66.445 211.807,66.445 C204.058,66.655 202.859,73.384 202.306,81.482" id="Shape"></path>
            <path d="M166.14,41.873 L175.364,41.873 L175.364,58.486 L188.093,58.486 L188.093,67.949 L175.364,67.949 L175.364,94.867 C175.364,98.969 176.747,100.334 178.592,100.545 C181.636,100.334 185.602,97.076 187.078,94.867 L192.428,102.227 C188.645,108.641 179.699,112.953 171.583,112.111 C164.572,111.481 159.869,107.8 159.869,97.076 L160.054,67.949 L153.505,67.949 L153.505,59.749 C160.606,58.486 165.403,52.493 166.14,41.873" id="Shape"></path>
            <path d="M125.98,58.779 L125.98,67.402 C125.959,67.447 123.055,68.974 123.055,68.67 C123.055,68.465 127.18,74.628 127.18,74.323 C127.18,74.476 131.343,68.924 131.306,68.823 C131.263,68.704 128.708,67.294 128.563,67.402 L128.563,58.779 L150.7,58.779 L150.7,67.402 C141.476,70.24 135.688,77.762 135.74,77.836 C146.8,93.387 161.8,128.387 193.734,104.884 L198.058,109.516 C175.8,126.387 141.8,131.387 121.368,92.007 C121.222,92.047 115.188,100.104 115.003,100.628 C115.188,102.941 118.787,102.941 120.078,102.941 L120.078,111.564 L97.571,111.564 L97.571,102.941 C103.659,100.523 107.994,93.687 116.296,84.015 C109.287,73.184 107.072,69.083 99.324,67.401 L99.324,58.778 L125.98,58.778 L125.98,58.779 Z" id="Shape"></path>
            <path d="M102.641,96.152 C96.83,107.928 88.713,112.238 78.844,112.029 C67.13,111.818 57.445,103.617 55.232,89.633 C55.047,87.738 54.863,85.951 54.679,84.059 C54.863,68.708 64.455,56.931 79.212,56.931 C95.816,57.142 102.641,70.496 101.535,83.639 L71.65,83.639 C71.465,91.418 73.587,100.147 80.965,101.304 C87.145,102.355 92.034,97.412 94.894,91.631 L102.641,96.152 Z M85.669,75.017 C85.669,70.705 82.809,67.236 79.211,67.446 C76.169,67.446 72.572,69.655 72.018,75.017 L85.669,75.017 Z" id="Shape"></path>
            <path d="M55.467,34.887 L55.467,49.01 L43.362,49.011 C39.831,36.906 34.824,37.187 29.742,37.913 C22.681,38.922 21.548,51.629 29.238,55.568 C49.86,66.129 56.047,70.547 57.484,85.831 C58.902,100.896 48.22,111.887 29.238,112.564 C15.115,113.068 0.488,105.502 0.488,105.502 L0.488,83.813 L10.071,83.813 C14.611,90.371 16.033,94.779 25.707,96.928 C39.326,99.954 41.343,84.824 22.176,78.77 C22.176,78.77 10.576,74.735 6.54,69.69 C-2.287,58.655 1.588,48.49 2.002,46.489 C4.997,32.474 19.387,27.726 27.035,27.618 C47.901,27.322 55.467,34.887 55.467,34.887" id="Shape"></path>
            <path d="M310.065,109.137 L310.065,55.406 L329.839,55.406 C336.917,55.406 341.654,58.115 344.047,63.533 C345.609,67.146 346.391,73.392 346.391,82.272 C346.391,91.153 345.609,97.399 344.047,101.01 C341.654,106.428 336.918,109.137 329.839,109.137 L310.065,109.137 Z M323.688,65.49 L323.688,99.053 L326.353,99.053 C328.608,99.053 330.216,98.026 331.177,95.968 C331.897,94.412 332.282,92.13 332.33,89.119 L332.33,82.271 L332.33,75.423 C332.282,72.412 331.897,70.13 331.177,68.574 C330.216,66.518 328.608,65.489 326.353,65.489 L323.688,65.489 L323.688,65.49 Z" id="Shape"></path>
            <polygon id="Shape" points="348.807 109.137 348.807 55.406 379.784 55.406 379.784 66.845 362.428 66.845 362.428 76.025 378.686 76.025 378.686 87.012 362.428 87.012 362.428 97.699 380.443 97.699 380.443 109.137"></polygon>
            <polygon id="Shape" points="383.593 109.137 383.593 55.406 398.918 55.406 407.76 88.518 407.76 55.406 420.502 55.406 420.502 109.137 405.471 109.137 396.335 75.95 396.335 109.137"></polygon>
            <polygon id="Shape" points="432 109.137 432 67.296 421.747 67.296 421.747 55.406 455.874 55.406 455.874 67.296 445.621 67.296 445.621 109.137"></polygon>
            <path d="M448.916,109.137 L461.659,55.406 L478.796,55.406 L491.538,109.137 L477.038,109.137 L475.646,99.731 L464.806,99.731 L463.415,109.137 L448.916,109.137 Z M474.035,89.195 L470.301,66.393 L470.155,66.393 L466.42,89.195 L474.035,89.195 Z" id="Shape"></path>
            <polygon id="Shape" points="491.979 109.137 491.979 55.406 505.6 55.406 505.6 97.699 522.37 97.699 522.37 109.137"></polygon>
            <path d="M551.883,74.746 L551.883,71.736 C551.883,68.776 551.602,66.72 551.041,65.565 C550.479,64.412 549.515,63.834 548.148,63.834 C546.145,63.834 544.852,65.089 544.266,67.597 C543.779,69.805 543.534,74.697 543.534,82.271 C543.534,89.847 543.779,94.739 544.266,96.946 C544.852,99.455 546.145,100.709 548.148,100.709 C550.247,100.709 551.541,98.903 552.029,95.29 C552.175,94.338 552.249,91.753 552.249,87.539 L565.432,87.539 L565.432,91.528 C565.432,103.97 559.67,110.191 548.149,110.191 C540.727,110.191 535.698,108.034 533.062,103.718 C530.669,99.855 529.474,92.706 529.474,82.271 C529.474,71.937 530.828,64.7 533.538,60.561 C536.248,56.422 541.117,54.352 548.148,54.352 C559.425,54.352 565.065,60.022 565.065,71.36 L565.065,74.746 L551.883,74.746 Z" id="Shape"></path>
            <polygon id="Shape" points="567.042 109.137 567.042 55.406 580.663 55.406 580.663 97.699 597.434 97.699 597.434 109.137"></polygon>
            <rect id="Rectangle-path" x="598.605" y="55.406" width="13.621" height="53.731"></rect>
            <polygon id="Shape" points="616.328 109.137 616.328 55.406 631.653 55.406 640.495 88.518 640.495 55.406 653.237 55.406 653.237 109.137 638.206 109.137 629.07 75.95 629.07 109.137"></polygon>
            <rect id="Rectangle-path" x="655.874" y="55.406" width="13.621" height="53.731"></rect>
            <path d="M694.467,74.746 L694.467,71.736 C694.467,68.776 694.186,66.72 693.625,65.565 C693.063,64.412 692.099,63.834 690.732,63.834 C688.729,63.834 687.436,65.089 686.85,67.597 C686.363,69.805 686.118,74.697 686.118,82.271 C686.118,89.847 686.363,94.739 686.85,96.946 C687.436,99.455 688.729,100.709 690.732,100.709 C692.831,100.709 694.125,98.903 694.613,95.29 C694.759,94.338 694.833,91.753 694.833,87.539 L708.016,87.539 L708.016,91.528 C708.016,103.97 702.254,110.191 690.733,110.191 C683.311,110.191 678.283,108.034 675.646,103.718 C673.253,99.855 672.058,92.706 672.058,82.271 C672.058,71.937 673.412,64.7 676.122,60.561 C678.832,56.422 683.701,54.352 690.732,54.352 C702.009,54.352 707.649,60.022 707.649,71.36 L707.649,74.746 L694.467,74.746 Z" id="Shape"></path>
            <path d="M127.238,154.528 L125.198,156.377 L123.158,154.264 C122.582,154.489 121.822,154.6 120.878,154.6 C118.494,154.6 116.878,153.768 116.03,152.105 C115.374,150.84 115.046,148.706 115.046,145.697 C115.046,142.689 115.374,140.553 116.03,139.29 C116.878,137.626 118.494,136.794 120.878,136.794 C123.262,136.794 124.886,137.626 125.75,139.29 C126.39,140.554 126.71,142.689 126.71,145.697 C126.71,149.057 126.27,151.378 125.39,152.657 L127.238,154.528 Z M118.502,145.696 C118.502,148.129 118.646,149.759 118.934,150.592 C119.254,151.569 119.902,152.057 120.878,152.057 C121.854,152.057 122.502,151.569 122.822,150.592 C123.11,149.76 123.254,148.129 123.254,145.696 C123.254,143.28 123.11,141.648 122.822,140.8 C122.502,139.823 121.854,139.335 120.878,139.335 C119.902,139.335 119.254,139.823 118.934,140.8 C118.646,141.648 118.502,143.28 118.502,145.696 L118.502,145.696 Z" id="Shape"></path>
            <path d="M133.334,137.128 L136.79,137.128 L136.79,149.08 C136.79,151.064 137.462,152.057 138.806,152.057 C140.15,152.057 140.822,151.065 140.822,149.08 L140.822,137.128 L144.278,137.128 L144.278,149.08 C144.278,152.76 142.454,154.6 138.806,154.6 C135.158,154.6 133.334,152.76 133.334,149.08 L133.334,137.128 L133.334,137.128 Z" id="Shape"></path>
            <path d="M150.062,154.264 L154.598,137.128 L158.87,137.128 L163.406,154.264 L159.806,154.264 L159.014,150.641 L154.454,150.641 L153.662,154.264 L150.062,154.264 Z M156.71,140.104 L155.054,147.809 L158.414,147.809 L156.758,140.104 L156.71,140.104 Z" id="Shape"></path>
            <polygon id="Shape" points="178.982 154.264 169.406 154.264 169.406 137.129 172.862 137.129 172.862 151.432 178.982 151.432"></polygon>
            <rect id="Rectangle-path" x="185.487" y="137.127" width="3.456" height="17.137"></rect>
            <polygon id="Shape" points="195.398 137.128 206.342 137.128 206.342 139.96 202.599 139.96 202.599 154.264 199.143 154.264 199.143 139.96 195.398 139.96"></polygon>
            <polygon id="Shape" points="211.502 137.128 215.39 137.128 217.646 143.752 217.694 143.752 220.094 137.128 223.838 137.128 219.398 147.52 219.398 154.264 215.942 154.264 215.942 147.52"></polygon>
            <path d="M246.926,145.145 L249.494,148.625 C249.893,147.793 250.094,146.928 250.094,146.032 L253.07,146.032 C253.07,147.744 252.486,149.431 251.318,151.095 L253.574,154.263 L249.902,154.263 L248.942,152.944 C248.013,154.048 246.638,154.599 244.814,154.599 C242.878,154.599 241.462,154.015 240.566,152.847 C239.894,151.984 239.558,150.919 239.558,149.656 C239.558,147.784 240.71,146.136 243.014,144.713 L242.414,143.824 C241.646,142.688 241.262,141.656 241.262,140.728 C241.262,139.624 241.666,138.748 242.474,138.099 C243.282,137.452 244.334,137.128 245.63,137.128 C247.037,137.128 248.117,137.472 248.87,138.159 C249.557,138.8 249.902,139.647 249.902,140.703 C249.902,142.272 248.909,143.752 246.926,145.145 M247.502,150.832 L244.622,146.752 C243.454,147.664 242.87,148.633 242.87,149.656 C242.87,150.248 243.077,150.76 243.494,151.192 C243.942,151.671 244.533,151.912 245.27,151.912 C246.182,151.912 246.926,151.553 247.502,150.832 M244.094,140.633 C244.094,141.065 244.382,141.689 244.958,142.504 L245.366,143.08 L245.99,142.553 C246.71,141.945 247.07,141.321 247.07,140.68 C247.07,139.721 246.566,139.241 245.558,139.241 C245.141,139.241 244.794,139.365 244.514,139.613 C244.234,139.86 244.094,140.2 244.094,140.633" id="Shape"></path>
            <path d="M268.861,154.264 L273.397,137.128 L277.669,137.128 L282.205,154.264 L278.605,154.264 L277.813,150.641 L273.253,150.641 L272.461,154.264 L268.861,154.264 Z M275.509,140.104 L273.853,147.809 L277.213,147.809 L275.557,140.104 L275.509,140.104 Z" id="Shape"></path>
            <polygon id="Shape" points="288.205 154.264 288.205 137.129 297.781 137.129 297.781 139.961 291.661 139.961 291.661 143.992 297.421 143.992 297.421 146.824 291.661 146.824 291.661 154.264"></polygon>
            <polygon id="Shape" points="304.117 154.264 304.117 137.129 313.693 137.129 313.693 139.961 307.573 139.961 307.573 143.992 313.333 143.992 313.333 146.824 307.573 146.824 307.573 154.264"></polygon>
            <path d="M319.669,145.696 C319.669,142.688 319.997,140.552 320.653,139.289 C321.501,137.625 323.117,136.793 325.501,136.793 C327.885,136.793 329.509,137.625 330.373,139.289 C331.013,140.553 331.333,142.688 331.333,145.696 C331.333,148.705 331.013,150.84 330.373,152.104 C329.509,153.767 327.885,154.599 325.501,154.599 C323.117,154.599 321.501,153.767 320.653,152.104 C319.997,150.84 319.669,148.705 319.669,145.696 M323.125,145.696 C323.125,148.129 323.269,149.759 323.557,150.592 C323.877,151.569 324.525,152.057 325.501,152.057 C326.477,152.057 327.125,151.569 327.445,150.592 C327.733,149.76 327.877,148.129 327.877,145.696 C327.877,143.28 327.733,141.648 327.445,140.8 C327.125,139.823 326.477,139.335 325.501,139.335 C324.525,139.335 323.877,139.823 323.557,140.8 C323.269,141.648 323.125,143.28 323.125,145.696" id="Shape"></path>
            <path d="M338.173,154.264 L338.173,137.129 L344.559,137.129 C345.997,137.129 347.118,137.504 347.917,138.256 C348.716,139.008 349.117,140.105 349.117,141.545 C349.117,143.961 348.165,145.369 346.261,145.769 L346.261,145.817 C347.399,145.962 348.141,146.417 348.493,147.185 C348.814,147.857 348.988,149.145 349.021,151.049 C349.037,152.041 349.084,152.737 349.165,153.137 C349.277,153.633 349.484,153.961 349.789,154.121 L349.789,154.264 L346.045,154.264 C345.789,153.881 345.645,153.281 345.613,152.465 L345.517,149.176 C345.468,147.737 344.788,147.017 343.476,147.017 L341.628,147.017 L341.628,154.264 L338.173,154.264 Z M341.629,139.672 L341.629,144.616 L343.068,144.616 C344.797,144.616 345.661,143.76 345.661,142.049 C345.661,140.465 344.861,139.672 343.262,139.672 L341.629,139.672 Z" id="Shape"></path>
            <path d="M356.485,154.264 L356.485,137.129 L362.149,137.129 C364.388,137.129 365.932,137.889 366.781,139.408 C367.469,140.625 367.813,142.64 367.813,145.457 C367.813,148.608 367.405,150.832 366.587,152.129 C365.708,153.553 364.156,154.264 361.933,154.264 L356.485,154.264 Z M359.941,139.672 L359.941,151.721 L361.477,151.721 C362.644,151.721 363.428,151.273 363.829,150.377 C364.181,149.561 364.357,147.953 364.357,145.553 C364.357,143.408 364.197,141.945 363.877,141.16 C363.461,140.168 362.637,139.672 361.405,139.672 L359.941,139.672 Z" id="Shape"></path>
            <path d="M372.877,154.264 L377.413,137.128 L381.684,137.128 L386.22,154.264 L382.62,154.264 L381.828,150.641 L377.267,150.641 L376.475,154.264 L372.877,154.264 Z M379.525,140.104 L377.869,147.809 L381.228,147.809 L379.573,140.104 L379.525,140.104 Z" id="Shape"></path>
            <path d="M392.221,154.264 L392.221,137.128 L398.005,137.128 C401.252,137.128 402.877,138.576 402.877,141.473 C402.877,143.489 402.013,144.737 400.284,145.217 L400.284,145.264 C401.244,145.393 402.004,145.809 402.564,146.512 C403.124,147.217 403.404,148.128 403.404,149.248 C403.404,150.736 403.02,151.904 402.253,152.752 C401.341,153.76 399.941,154.264 398.053,154.264 L392.221,154.264 L392.221,154.264 Z M395.677,139.672 L395.677,144.16 L396.66,144.16 C398.5,144.16 399.421,143.408 399.421,141.904 C399.421,141.103 399.221,140.532 398.82,140.187 C398.42,139.843 397.788,139.671 396.924,139.671 L395.677,139.671 L395.677,139.672 Z M395.677,146.561 L395.677,151.721 L397.021,151.721 C398.876,151.721 399.805,150.856 399.805,149.128 C399.805,147.416 398.925,146.561 397.164,146.561 L395.677,146.561 Z" id="Shape"></path>
            <polygon id="Shape" points="419.941 154.264 410.365 154.264 410.365 137.129 413.821 137.129 413.821 151.432 419.941 151.432"></polygon>
            <polygon id="Shape" points="426.277 137.128 435.854 137.128 435.854 139.96 429.733 139.96 429.733 143.992 435.493 143.992 435.493 146.824 429.733 146.824 429.733 151.432 436.092 151.432 436.092 154.264 426.277 154.264"></polygon>
            <path d="M453.349,154.264 L453.349,137.129 L459.013,137.129 C461.252,137.129 462.796,137.889 463.645,139.408 C464.333,140.625 464.677,142.64 464.677,145.457 C464.677,148.608 464.269,150.832 463.452,152.129 C462.572,153.553 461.02,154.264 458.797,154.264 L453.349,154.264 Z M456.805,139.672 L456.805,151.721 L458.341,151.721 C459.508,151.721 460.292,151.273 460.693,150.377 C461.045,149.561 461.221,147.953 461.221,145.553 C461.221,143.408 461.061,141.945 460.741,141.16 C460.325,140.168 459.501,139.672 458.269,139.672 L456.805,139.672 Z" id="Shape"></path>
            <polygon id="Shape" points="471.756 137.128 481.332 137.128 481.332 139.96 475.212 139.96 475.212 143.992 480.972 143.992 480.972 146.824 475.212 146.824 475.212 151.432 481.57 151.432 481.57 154.264 471.756 154.264"></polygon>
            <polygon id="Shape" points="488.1 137.128 492.106 137.128 496.308 148.863 496.308 137.128 499.476 137.128 499.476 154.264 495.517 154.264 491.268 142.264 491.268 154.264 488.1 154.264"></polygon>
            <polygon id="Shape" points="505.764 137.128 516.708 137.128 516.708 139.96 512.964 139.96 512.964 154.264 509.508 154.264 509.508 139.96 505.764 139.96"></polygon>
            <rect id="Rectangle-path" x="523.163" y="137.127" width="3.456" height="17.137"></rect>
            <path d="M533.315,148.912 L536.771,148.912 L536.771,149.416 C536.771,150.297 536.922,150.936 537.227,151.336 C537.579,151.816 538.187,152.057 539.05,152.057 C539.626,152.057 540.114,151.872 540.514,151.504 C540.914,151.137 541.115,150.616 541.115,149.944 C541.115,149.191 540.899,148.616 540.467,148.216 C540.035,147.816 539.227,147.415 538.043,147.015 C536.443,146.472 535.315,145.831 534.659,145.095 C533.923,144.296 533.555,143.207 533.555,141.831 C533.555,140.199 534.035,138.943 534.995,138.063 C535.907,137.215 537.195,136.791 538.859,136.791 C540.491,136.791 541.762,137.151 542.674,137.871 C543.666,138.655 544.162,139.831 544.162,141.399 L544.162,141.879 L540.85,141.879 C540.85,140.182 540.226,139.334 538.978,139.334 C537.666,139.334 537.009,139.998 537.009,141.326 C537.009,141.887 537.121,142.326 537.345,142.646 C537.601,143.013 538.081,143.349 538.785,143.654 L541.449,144.806 C542.697,145.349 543.569,145.982 544.065,146.702 C544.497,147.358 544.712,148.238 544.712,149.342 C544.712,152.846 542.729,154.598 538.76,154.598 C535.128,154.598 533.313,152.934 533.313,149.606 L533.313,148.912 L533.315,148.912 Z" id="Shape"></path>
            <polygon id="Shape" points="550.331 137.128 561.275 137.128 561.275 139.96 557.531 139.96 557.531 154.264 554.075 154.264 554.075 139.96 550.331 139.96"></polygon>
            <path d="M567.563,154.264 L567.563,137.129 L573.947,137.129 C575.387,137.129 576.507,137.504 577.307,138.256 C578.107,139.008 578.506,140.105 578.506,141.545 C578.506,143.961 577.554,145.369 575.651,145.769 L575.651,145.817 C576.787,145.962 577.531,146.417 577.882,147.185 C578.202,147.857 578.378,149.145 578.41,151.049 C578.426,152.041 578.473,152.737 578.555,153.137 C578.665,153.633 578.874,153.961 579.179,154.121 L579.179,154.264 L575.435,154.264 C575.178,153.881 575.035,153.281 575.002,152.465 L574.906,149.176 C574.858,147.737 574.177,147.017 572.866,147.017 L571.018,147.017 L571.018,154.264 L567.563,154.264 Z M571.02,139.672 L571.02,144.616 L572.459,144.616 C574.188,144.616 575.052,143.76 575.052,142.049 C575.052,140.465 574.25,139.672 572.652,139.672 L571.02,139.672 Z" id="Shape"></path>
            <polygon id="Shape" points="584.147 137.128 588.035 137.128 590.291 143.752 590.338 143.752 592.739 137.128 596.483 137.128 592.043 147.52 592.043 154.264 588.586 154.264 588.586 147.52"></polygon>
            <path d="M192.971,8.751 L192.899,8.823 C194.303,9.039 194.519,9.111 195.167,9.327 C195.563,9.399 195.779,9.687 195.779,9.939 C195.779,10.083 195.635,10.227 195.239,10.299 C195.095,10.227 194.951,10.227 194.807,10.227 C194.015,10.155 193.259,10.083 192.395,10.083 L190.992,10.083 C190.236,10.011 189.588,10.011 189.444,9.867 C189.336,9.687 189.336,9.399 189.263,8.967 C189.336,7.851 189.732,6.375 189.948,5.115 C190.38,2.416 198.335,0.544 204.85,0.616 C213.848,0.616 212.804,1.444 214.208,5.295 C214.496,6.087 211.257,10.515 210.069,12.278 L204.382,20.918 C204.993,20.918 205.21,21.062 205.21,21.493 C205.21,22.465 203.302,24.733 202.042,26.137 C201.538,26.749 200.926,26.964 200.278,26.964 C199.235,26.964 198.514,26.209 198.587,25.273 C198.874,22.681 201.826,18.397 202.69,17.138 C205.426,13.178 208.305,9.687 211.185,5.943 C204.562,6.087 197.974,7.131 192.971,8.751" id="Shape"></path>
            <path d="M214.067,24.157 C213.527,24.733 213.023,25.201 212.519,25.273 C211.332,25.057 211.259,22.537 211.259,21.566 C211.259,20.234 211.547,19.01 211.763,18.326 C213.095,14.87 217.883,8.679 221.806,5.044 C222.922,3.964 224.758,2.02 226.234,2.02 C226.666,2.02 227.025,2.164 227.314,2.416 C228.645,3.82 222.094,10.803 220.402,12.638 C216.803,16.418 217.451,15.842 213.815,19.658 L213.815,20.99 C216.623,18.722 218.567,16.922 220.33,15.77 C221.662,14.942 222.994,13.826 224.146,13.826 C224.902,13.826 225.802,14.655 225.802,15.446 C225.802,16.49 224.47,17.534 223.138,19.226 C222.814,19.73 221.878,20.774 221.806,21.637 C221.878,21.818 222.022,22.105 222.31,22.178 C223.426,22.537 226.378,20.342 227.493,19.514 L227.71,21.062 C224.47,23.653 222.238,25.129 220.618,25.633 C220.258,25.705 219.899,25.777 219.574,25.777 C218.422,25.777 218.026,24.913 218.099,23.725 C218.315,21.205 220.762,18.686 221.806,17.246 L221.734,17.21 C217.811,19.73 214.355,23.869 214.067,24.157" id="Shape"></path>
            <path d="M230.663,21.134 C230.663,22.25 231.634,22.898 232.966,22.97 C233.254,22.898 233.47,22.898 233.614,22.898 C235.306,22.61 237.25,21.35 240.417,18.723 L240.778,20.162 C236.854,24.374 233.614,26.066 231.202,26.066 C228.683,26.066 227.207,24.086 227.135,21.422 C226.919,17.246 231.49,12.063 236.638,11.848 C238.618,11.775 239.445,12.495 239.445,13.683 C239.445,14.295 239.157,15.159 238.618,15.843 C236.782,18.255 232.57,19.659 230.879,20.234 C230.807,20.486 230.735,20.774 230.663,21.134 M236.278,14.223 C236.278,14.043 236.206,13.971 236.206,13.971 C235.846,13.683 232.57,14.871 230.95,18.542 C234.442,17.246 236.278,15.015 236.278,14.223" id="Shape"></path>
            <path d="M276.775,9.112 C276.775,11.019 276.128,13.179 275.588,14.367 C272.42,20.702 265.869,25.634 260.47,25.634 C259.462,25.634 258.634,25.49 257.77,25.202 C255.106,24.23 253.847,21.134 253.774,18.111 C253.847,16.491 254.134,14.943 254.782,13.755 C257.518,8.464 263.781,3.137 270.873,1.013 C271.412,0.869 271.916,0.725 272.42,0.725 C273.68,0.725 275.732,2.272 275.732,3.712 C275.732,4.612 273.896,4.612 272.492,5.656 C275.768,4.828 276.775,6.664 276.775,9.112 M257.374,20.702 C257.446,21.818 257.842,22.826 258.85,22.97 C260.793,23.294 265.653,21.494 269.325,16.994 C271.268,15.015 273.608,11.919 273.608,9.04 C273.608,7.852 272.96,7.42 271.916,7.42 C269.937,7.42 266.661,9.256 265.041,10.66 C263.709,11.775 262.558,13.899 261.874,13.971 C261.658,13.899 261.441,13.611 261.37,12.963 C259.066,15.015 257.77,17.75 257.374,20.702" id="Shape"></path>
            <path d="M281.782,16.851 C280.306,17.211 278.759,17.463 278.038,17.679 C276.923,19.442 275.591,20.342 273.683,22.106 L273.539,20.559 C274.691,19.659 275.303,18.794 275.951,17.894 C275.303,17.894 274.943,17.535 274.943,16.923 C274.943,15.519 276.419,13.179 278.903,11.775 C279.118,11.704 279.298,11.631 279.586,11.631 C279.874,11.631 280.162,11.775 280.162,12.279 C280.162,12.496 280.09,12.819 279.874,13.251 C282.826,12.891 284.23,12.639 284.949,12.639 C286.066,12.639 286.353,14.115 286.353,15.015 C286.353,15.303 286.353,15.519 286.282,15.663 C286.066,16.275 284.23,17.391 282.97,19.155 C282.61,19.802 282.214,20.486 282.142,21.134 C282.286,21.818 282.61,22.034 283.258,22.178 C284.446,22.106 286.209,20.702 288.297,18.867 L288.513,20.234 C285.166,23.942 282.322,25.705 281.062,25.778 C279.946,25.85 278.759,24.986 278.542,23.222 C278.326,21.062 279.946,19.082 281.854,16.923 L281.782,16.851 Z" id="Shape"></path>
            <path d="M290.638,20.702 C290.71,21.963 291.286,22.394 292.618,22.394 C294.165,22.394 295.353,21.422 297.873,19.443 L298.161,20.775 C295.138,24.734 291.826,26.39 290.17,25.994 C288.334,25.49 287.686,23.726 287.686,21.746 C287.686,18.795 289.162,16.563 291.358,14.583 C291.898,14.043 293.194,13.108 294.309,13.108 C294.921,13.108 295.786,13.395 295.786,14.187 C295.786,15.987 291.718,19.515 290.71,20.163 C290.71,20.271 290.71,20.415 290.638,20.702 M297.765,8.067 C298.449,8.067 299.025,8.463 299.025,9.255 C299.025,10.875 297.693,12.063 296.217,12.351 C295.425,12.351 294.813,11.703 294.742,10.803 C294.813,10.443 294.849,10.011 295.065,9.687 C295.786,8.536 296.901,8.067 297.765,8.067" id="Shape"></path>
            <path d="M300.322,24.913 C298.846,24.841 298.162,23.509 297.874,21.494 C297.299,18.11 300.826,15.303 302.949,14.115 C305.685,12.495 307.521,11.919 308.637,11.919 C309.213,11.919 310.329,12.207 310.329,12.891 C310.329,13.394 309.825,13.899 309.141,14.223 C307.089,15.446 305.973,15.986 304.426,16.85 C302.302,17.894 300.826,18.686 300.466,20.414 C300.466,20.558 300.466,20.774 300.394,20.99 C300.394,21.566 300.754,21.746 301.186,21.818 C301.618,21.746 301.87,21.638 302.086,21.638 C305.397,20.414 306.189,18.722 310.041,14.582 C310.257,14.367 310.473,14.294 310.76,14.294 C311.517,14.294 312.164,15.23 312.164,16.13 C312.164,16.418 312.093,16.634 312.021,16.778 L308.709,22.97 L308.781,23.041 L314.252,19.082 L314.468,20.63 L306.729,26.389 C304.497,30.277 300.466,34.56 298.594,34.56 C298.09,34.56 297.73,34.056 297.73,33.588 C297.73,31.681 301.402,28.009 305.11,25.201 L307.737,20.09 C304.281,23.437 301.942,24.841 300.322,24.913" id="Shape"></path>
            <path d="M316.558,20.702 C316.63,21.963 317.206,22.394 318.538,22.394 C320.085,22.394 321.273,21.422 323.793,19.443 L324.081,20.775 C321.058,24.734 317.746,26.39 316.09,25.994 C314.254,25.49 313.606,23.726 313.606,21.746 C313.606,18.795 315.082,16.563 317.278,14.583 C317.818,14.043 319.114,13.108 320.229,13.108 C320.841,13.108 321.706,13.395 321.706,14.187 C321.706,15.987 317.638,19.515 316.63,20.163 C316.629,20.271 316.629,20.415 316.558,20.702 M323.685,8.067 C324.369,8.067 324.945,8.463 324.945,9.255 C324.945,10.875 323.613,12.063 322.137,12.351 C321.345,12.351 320.733,11.703 320.662,10.803 C320.733,10.443 320.769,10.011 320.985,9.687 C321.706,8.536 322.82,8.067 323.685,8.067" id="Shape"></path>
            <path d="M333.836,17.39 C331.028,19.298 328.221,23.114 327.177,24.301 C326.529,24.985 325.917,25.273 325.269,25.345 C324.297,25.273 323.505,24.157 323.433,22.105 C323.289,20.27 324.693,17.318 325.989,15.77 C327.464,14.042 327.681,13.611 329.156,13.611 L329.984,13.611 C330.74,13.611 331.028,13.899 331.028,14.367 C331.028,15.734 327.608,18.47 326.745,19.874 C326.673,20.018 326.601,20.162 326.529,20.342 C326.529,20.486 326.673,20.63 326.889,20.702 C327.177,20.63 327.393,20.486 327.464,20.342 C329.012,18.542 329.912,17.606 332.432,15.662 C333.008,15.086 336.931,12.207 338.155,12.063 C338.479,12.063 339.199,13.682 339.199,14.726 C339.199,15.015 339.199,15.23 339.127,15.303 C337.94,17.066 334.988,19.37 334.917,21.205 C335.133,21.745 335.061,21.818 335.457,22.034 C336.608,21.962 339.2,19.73 340.82,18.398 L341.108,19.946 C338.156,22.897 334.917,26.065 332.721,26.065 C331.245,26.065 331.101,24.769 330.813,23.725 C330.885,21.818 332.505,19.442 333.909,17.462 L333.836,17.39 Z" id="Shape"></path>
            <path d="M354.859,15.915 C354.859,16.563 354.463,17.247 353.959,17.823 C352.7,19.298 351.836,20.63 351.801,21.494 C351.836,21.962 352.125,22.25 352.7,22.322 C353.816,22.466 355.508,21.422 358.027,19.371 L358.315,20.846 C356.299,22.898 351.511,26.822 349.82,26.39 C349.029,26.209 348.488,25.706 348.416,24.59 C348.488,23.582 348.885,22.25 349.82,20.415 L349.748,20.342 C347.625,21.962 344.457,24.842 342.801,25.418 C341.865,25.706 339.49,23.366 339.49,21.134 C339.49,20.774 339.49,20.486 339.562,20.27 C340.677,15.987 348.488,12.352 352.412,11.991 L352.771,11.991 C353.744,11.991 355.076,12.639 355.076,13.755 C355.076,14.043 354.752,14.295 353.888,14.583 C354.607,14.942 354.859,15.375 354.859,15.915 L354.859,15.915 Z M351.729,15.519 C347.913,16.851 341.65,18.723 342.083,22.178 C342.083,22.61 342.37,22.826 342.73,22.898 C344.53,22.826 349.389,17.967 351.729,15.591 L351.729,15.519 L351.729,15.519 Z" id="Shape"></path>
            <path d="M360.909,20.27 C360.98,22.106 361.881,22.61 362.888,22.61 C364.364,22.61 366.523,21.422 369.007,19.011 L369.476,20.162 C367.388,22.322 364.507,25.778 361.124,25.778 C359.144,25.778 358.028,24.302 357.884,22.61 C357.272,15.771 361.269,10.083 367.171,4.756 C368.359,3.712 369.151,3.137 369.618,3.137 C370.051,3.137 370.194,3.568 370.194,4.54 C370.194,8.752 367.171,12.495 364.435,15.447 C363.103,16.851 362.239,17.75 361.123,18.615 C360.98,19.226 360.98,19.802 360.909,20.27 M367.46,7.492 C365.553,8.824 362.815,12.747 361.881,15.447 C363.355,14.223 366.381,10.515 367.46,7.492" id="Shape"></path>
            <path d="M383.77,16.921 C384.409,13.913 385.186,11.777 386.098,10.513 C387.313,8.849 389.114,8.017 391.496,8.017 C393.144,8.017 394.337,8.409 395.072,9.193 C395.728,9.881 396.056,10.937 396.056,12.361 C396.056,13.449 395.848,14.969 395.433,16.921 C394.792,19.929 394.017,22.065 393.105,23.329 C391.888,24.993 390.088,25.825 387.705,25.825 C386.041,25.825 384.85,25.433 384.129,24.649 C383.473,23.961 383.145,22.905 383.145,21.481 C383.145,20.394 383.353,18.874 383.77,16.921 M387.225,16.921 C386.793,18.969 386.578,20.417 386.578,21.265 C386.578,22.609 387.138,23.281 388.258,23.281 C389.234,23.281 389.986,22.801 390.515,21.841 C390.978,20.993 391.466,19.353 391.978,16.921 C392.411,14.889 392.626,13.441 392.626,12.577 C392.626,11.233 392.065,10.561 390.946,10.561 C389.969,10.561 389.217,11.049 388.69,12.025 C388.225,12.874 387.736,14.505 387.225,16.921" id="Shape"></path>
            <path d="M400.354,25.489 L403.089,12.577 L406.257,12.577 L405.945,14.089 L405.993,14.089 C406.921,12.857 408.144,12.241 409.665,12.241 C411.441,12.241 412.329,13.049 412.329,14.665 C412.329,15.033 412.281,15.449 412.185,15.913 L410.144,25.489 L406.832,25.489 L408.728,16.585 C408.792,16.297 408.825,16.041 408.825,15.817 C408.825,15.129 408.449,14.785 407.697,14.785 C406.529,14.785 405.793,15.497 405.489,16.921 L403.665,25.489 L400.354,25.489 L400.354,25.489 Z" id="Shape"></path>
            <path d="M427.809,19.538 L421.257,19.538 L421.041,20.57 C420.929,21.066 420.873,21.514 420.873,21.914 C420.873,23.018 421.257,23.57 422.025,23.57 C423,23.57 423.753,22.762 424.281,21.146 L427.257,21.146 C426.473,24.266 424.584,25.826 421.593,25.826 C418.936,25.826 417.61,24.626 417.61,22.226 C417.61,21.458 417.761,20.354 418.065,18.914 C418.513,16.834 419.144,15.29 419.961,14.282 C421.049,12.922 422.601,12.242 424.617,12.242 C427.096,12.242 428.337,13.426 428.337,15.794 C428.337,16.594 428.209,17.594 427.953,18.794 L427.809,19.538 Z M421.665,17.569 L425.049,17.569 C425.177,16.849 425.24,16.289 425.24,15.889 C425.24,14.961 424.833,14.497 424.016,14.497 C422.88,14.497 422.136,15.353 421.785,17.065 L421.665,17.569 Z" id="Shape"></path>
            <polygon id="Shape" points="434.072 20.905 434.697 17.929 446.841 17.929 446.217 20.905"></polygon>
            <path d="M452.529,25.49 L456.176,8.354 L461.84,8.354 C463.44,8.354 464.591,8.73 465.296,9.482 C465.935,10.154 466.256,11.194 466.256,12.602 C466.256,13.626 466.079,14.986 465.727,16.682 C465.056,19.834 464.176,22.058 463.088,23.354 C461.903,24.778 460.199,25.49 457.975,25.49 L452.529,25.49 Z M459.08,10.897 L456.537,22.945 L458.072,22.945 C459.24,22.945 460.113,22.497 460.687,21.601 C461.216,20.785 461.736,19.177 462.248,16.777 C462.601,15.145 462.777,13.953 462.777,13.201 C462.777,11.665 462.033,10.897 460.545,10.897 L459.08,10.897 Z" id="Shape"></path>
            <path d="M475.688,16.537 L472.712,16.537 L472.783,16.225 C473.343,13.569 475.136,12.241 478.159,12.241 C480.831,12.241 482.167,13.105 482.167,14.833 C482.167,15.217 482.111,15.673 481.999,16.201 L480.56,22.993 C480.335,24.049 480.296,24.881 480.44,25.489 L477.272,25.489 C477.191,25.249 477.152,24.801 477.152,24.145 L477.104,24.145 C476.591,24.785 476.048,25.233 475.472,25.489 C474.959,25.713 474.287,25.825 473.456,25.825 C471.823,25.825 471.007,24.953 471.007,23.209 C471.007,22.857 471.047,22.497 471.128,22.129 C471.367,20.945 471.816,20.049 472.472,19.441 C473.079,18.865 473.999,18.417 475.232,18.097 L477.224,17.593 C478.152,17.353 478.696,16.849 478.856,16.081 C478.904,15.889 478.927,15.713 478.927,15.553 C478.927,14.849 478.503,14.497 477.656,14.497 C476.633,14.497 476,15.057 475.76,16.177 L475.688,16.537 Z M477.704,21.577 L478.232,19.033 C477.736,19.353 477.216,19.569 476.671,19.681 C475.376,19.953 474.608,20.649 474.367,21.769 C474.319,22.009 474.296,22.233 474.296,22.441 C474.296,23.193 474.608,23.569 475.232,23.569 C475.744,23.569 476.224,23.417 476.671,23.113 C477.217,22.745 477.561,22.233 477.704,21.577 L477.704,21.577 Z" id="Shape"></path>
            <path d="M486.296,29.713 L486.801,27.241 C487.088,27.289 487.376,27.313 487.664,27.313 C488.752,27.313 489.473,26.705 489.824,25.489 L488.935,12.577 L492.392,12.577 L492.415,21.505 L492.463,21.505 L496.039,12.577 L499.351,12.577 L493.687,24.625 C492.648,26.833 491.767,28.233 491.047,28.825 C490.327,29.417 489.191,29.713 487.64,29.713 L486.296,29.713 Z" id="Shape"></path>
            <path d="M513.464,25.49 L517.111,8.354 L522.775,8.354 C524.375,8.354 525.527,8.73 526.232,9.482 C526.871,10.154 527.191,11.194 527.191,12.602 C527.191,13.626 527.015,14.986 526.664,16.682 C525.992,19.834 525.111,22.058 524.023,23.354 C522.839,24.778 521.134,25.49 518.912,25.49 L513.464,25.49 Z M520.016,10.897 L517.472,22.945 L519.008,22.945 C520.176,22.945 521.048,22.497 521.623,21.601 C522.152,20.785 522.672,19.177 523.184,16.777 C523.536,15.145 523.712,13.953 523.712,13.201 C523.712,11.665 522.968,10.897 521.48,10.897 L520.016,10.897 Z" id="Shape"></path>
            <path d="M542.432,19.538 L535.879,19.538 L535.664,20.57 C535.551,21.066 535.496,21.514 535.496,21.914 C535.496,23.018 535.879,23.57 536.647,23.57 C537.623,23.57 538.375,22.762 538.903,21.146 L541.879,21.146 C541.096,24.266 539.207,25.826 536.215,25.826 C533.559,25.826 532.232,24.626 532.232,22.226 C532.232,21.458 532.383,20.354 532.688,18.914 C533.135,16.834 533.768,15.29 534.584,14.282 C535.672,12.922 537.223,12.242 539.239,12.242 C541.718,12.242 542.959,13.426 542.959,15.794 C542.959,16.594 542.831,17.594 542.575,18.794 L542.432,19.538 Z M536.287,17.569 L539.672,17.569 C539.799,16.849 539.863,16.289 539.863,15.889 C539.863,14.961 539.455,14.497 538.638,14.497 C537.502,14.497 536.759,15.353 536.407,17.065 L536.287,17.569 Z" id="Shape"></path>
            <path d="M547.688,25.489 L550.423,12.577 L553.591,12.577 L553.279,14.089 L553.327,14.089 C554.255,12.857 555.478,12.241 556.999,12.241 C558.775,12.241 559.663,13.049 559.663,14.665 C559.663,15.033 559.615,15.449 559.519,15.913 L557.478,25.489 L554.166,25.489 L556.062,16.585 C556.126,16.297 556.159,16.041 556.159,15.817 C556.159,15.129 555.783,14.785 555.031,14.785 C553.863,14.785 553.127,15.497 552.823,16.921 L550.999,25.489 L547.688,25.489 L547.688,25.489 Z" id="Shape"></path>
            <path d="M567.943,12.577 L568.735,8.881 L572.047,8.881 L571.256,12.577 L573.176,12.577 L572.696,14.833 L570.776,14.833 L569.312,21.837 C569.248,22.11 569.214,22.335 569.214,22.511 C569.214,23.009 569.535,23.257 570.176,23.257 L570.92,23.257 L570.44,25.516 C569.463,25.61 568.736,25.657 568.255,25.657 C567.295,25.657 566.623,25.533 566.239,25.285 C565.855,25.036 565.663,24.591 565.663,23.95 C565.663,23.549 565.743,22.979 565.903,22.242 L567.463,14.833 L565.783,14.833 L566.263,12.577 L567.943,12.577 Z" id="Shape"></path>
            <path d="M583.016,25.489 L583.328,23.977 L583.28,23.977 C582.352,25.209 581.128,25.825 579.608,25.825 C577.831,25.825 576.944,25.017 576.944,23.401 C576.944,23.033 577,22.617 577.112,22.153 L579.128,12.577 L582.44,12.577 L580.544,21.481 C580.495,21.769 580.472,22.025 580.472,22.249 C580.472,22.937 580.848,23.281 581.601,23.281 C582.769,23.281 583.496,22.569 583.785,21.145 L585.609,12.577 L588.921,12.577 L586.186,25.489 L583.016,25.489 L583.016,25.489 Z" id="Shape"></path>
            <path d="M593.191,25.489 L595.926,12.577 L599.094,12.577 L598.734,14.305 L598.783,14.305 C599.822,12.929 600.959,12.241 602.191,12.241 C602.335,12.241 602.535,12.257 602.791,12.288 L602.119,15.409 L601.088,15.409 C600.431,15.409 599.847,15.585 599.335,15.937 C598.711,16.337 598.318,16.937 598.158,17.737 L596.503,25.489 L593.191,25.489 L593.191,25.489 Z" id="Shape"></path>
            <path d="M616.639,19.538 L610.087,19.538 L609.871,20.57 C609.759,21.066 609.703,21.514 609.703,21.914 C609.703,23.018 610.087,23.57 610.855,23.57 C611.83,23.57 612.583,22.762 613.111,21.146 L616.087,21.146 C615.303,24.266 613.414,25.826 610.423,25.826 C607.766,25.826 606.44,24.626 606.44,22.226 C606.44,21.458 606.591,20.354 606.895,18.914 C607.343,16.834 607.974,15.29 608.791,14.282 C609.879,12.922 611.431,12.242 613.447,12.242 C615.926,12.242 617.167,13.426 617.167,15.794 C617.167,16.594 617.039,17.594 616.783,18.794 L616.639,19.538 Z M610.495,17.569 L613.879,17.569 C614.007,16.849 614.07,16.289 614.07,15.889 C614.07,14.961 613.663,14.497 612.846,14.497 C611.71,14.497 610.966,15.353 610.615,17.065 L610.495,17.569 Z" id="Shape"></path>
            <path d="M645.75,14.137 L642.295,14.137 C642.454,13.369 642.535,12.737 642.535,12.241 C642.535,11.121 642.014,10.561 640.974,10.561 C640.126,10.561 639.446,11.057 638.934,12.049 C638.455,12.961 637.951,14.665 637.421,17.161 C637.021,19.017 636.821,20.401 636.821,21.313 C636.821,22.065 636.958,22.594 637.229,22.897 C637.454,23.153 637.821,23.281 638.333,23.281 C639.038,23.281 639.604,23.017 640.038,22.489 C640.581,21.833 641.038,20.649 641.405,18.937 L644.862,18.937 C644.413,21.081 643.733,22.689 642.821,23.761 C641.653,25.137 640.029,25.825 637.95,25.825 C636.285,25.825 635.094,25.433 634.374,24.649 C633.718,23.961 633.39,22.905 633.39,21.481 C633.39,20.393 633.597,18.873 634.014,16.921 C634.654,13.913 635.43,11.777 636.342,10.513 C637.558,8.849 639.358,8.017 641.741,8.017 C644.604,8.017 646.038,9.257 646.038,11.737 C646.039,12.377 645.942,13.177 645.75,14.137" id="Shape"></path>
            <polygon id="Shape" points="650.262 25.489 653.91 8.353 657.223 8.353 653.574 25.489"></polygon>
            <path d="M660.822,25.489 L663.558,12.577 L666.87,12.577 L664.135,25.489 L660.822,25.489 Z M663.895,11.017 L664.495,8.185 L667.807,8.185 L667.206,11.017 L663.895,11.017 Z" id="Shape"></path>
            <path d="M671.262,25.489 L673.998,12.577 L677.166,12.577 L676.854,14.089 L676.903,14.089 C677.831,12.857 679.053,12.241 680.575,12.241 C682.35,12.241 683.239,13.049 683.239,14.665 C683.239,15.033 683.19,15.449 683.094,15.913 L681.054,25.489 L677.742,25.489 L679.638,16.585 C679.701,16.297 679.735,16.041 679.735,15.817 C679.735,15.129 679.358,14.785 678.606,14.785 C677.438,14.785 676.702,15.497 676.399,16.921 L674.575,25.489 L671.262,25.489 L671.262,25.489 Z" id="Shape"></path>
            <path d="M688.182,25.489 L690.918,12.577 L694.23,12.577 L691.495,25.489 L688.182,25.489 Z M691.254,11.017 L691.854,8.185 L695.166,8.185 L694.565,11.017 L691.254,11.017 Z" id="Shape"></path>
            <path d="M709.758,17.233 L706.59,17.233 C706.686,16.753 706.734,16.345 706.734,16.009 C706.734,15.097 706.374,14.641 705.655,14.641 C704.886,14.641 704.286,15.009 703.854,15.745 C703.502,16.337 703.159,17.441 702.823,19.057 C702.534,20.417 702.39,21.409 702.39,22.033 C702.39,23.057 702.806,23.569 703.638,23.569 C704.709,23.569 705.461,22.561 705.894,20.545 L709.062,20.545 C708.31,24.065 706.293,25.825 703.014,25.825 C701.702,25.825 700.725,25.541 700.086,24.973 C699.444,24.405 699.125,23.449 699.125,22.105 C699.125,21.273 699.254,20.249 699.51,19.033 C700.037,16.537 700.91,14.745 702.125,13.657 C703.166,12.713 704.518,12.241 706.182,12.241 C708.678,12.241 709.926,13.401 709.926,15.72 C709.926,16.186 709.869,16.689 709.758,17.233" id="Shape"></path>
            <path d="M272.768,37.546 C226.045,32.462 189.127,37.22 189.127,37.22 C189.127,37.22 221.229,27.105 272.776,33.546 C292.554,36.017 317.883,36.642 335.43,35.344 C346.852,34.5 368.022,30.746 367.305,31.078 C367.305,31.078 350.823,37.377 339.363,38.686 C324.637,40.367 307.131,41.285 272.768,37.546" id="Shape"></path>
        </g>
    </g>
</svg>