<?xml version="1.0" standalone="no"?>
<!DOCTYPE svg PUBLIC "-//W3C//DTD SVG 20010904//EN"
 "http://www.w3.org/TR/2001/REC-SVG-20010904/DTD/svg10.dtd">
<svg version="1.0" xmlns="http://www.w3.org/2000/svg"
 width="724.000000pt" height="556.000000pt" viewBox="0 0 724.000000 556.000000"
 preserveAspectRatio="xMidYMid meet">
<metadata>
Created by potrace 1.16, written by Peter Selinger 2001-2019
</metadata>
<g transform="translate(0.000000,556.000000) scale(0.100000,-0.100000)"
fill="#000000" stroke="none">
<path d="M2176 5290 c-407 -64 -684 -329 -782 -747 -32 -135 -44 -381 -24
-500 27 -170 90 -329 256 -643 212 -401 245 -522 279 -1015 31 -452 61 -601
182 -895 103 -250 223 -443 357 -575 143 -141 285 -203 442 -192 117 9 185 50
230 140 51 100 56 154 58 647 2 481 11 585 55 685 34 77 117 127 216 128 74 1
126 -16 173 -57 90 -79 103 -172 112 -796 4 -301 10 -507 17 -525 63 -182 213
-259 408 -210 283 72 522 373 712 895 74 202 102 368 128 755 34 493 66 613
274 1005 221 418 271 572 271 829 0 494 -214 860 -590 1010 -164 65 -379 86
-580 57 -107 -16 -177 -33 -629 -151 -288 -76 -318 -74 -736 40 -350 96 -453
115 -625 120 -80 2 -172 0 -204 -5z m362 -145 c102 -17 443 -102 533 -133 71
-25 192 -83 346 -167 267 -144 409 -190 593 -190 111 0 135 3 213 29 140 46
180 85 147 146 -20 37 -53 42 -114 15 -194 -86 -387 -70 -631 53 l-90 45 100
22 c55 13 211 53 347 89 464 124 653 136 886 57 117 -41 185 -84 282 -181 153
-152 227 -336 251 -619 21 -264 -27 -427 -251 -851 -220 -416 -256 -550 -295
-1095 -27 -380 -46 -489 -130 -720 -87 -240 -207 -459 -327 -598 -88 -102
-247 -187 -348 -187 -81 0 -139 43 -165 121 -14 40 -17 120 -19 516 -3 488
-10 583 -53 720 -33 106 -129 197 -241 229 -87 26 -222 16 -297 -21 -119 -58
-181 -148 -209 -305 -33 -179 -39 -306 -32 -665 8 -376 3 -449 -37 -521 -33
-57 -76 -76 -165 -71 -233 13 -450 264 -636 733 -93 237 -123 383 -146 719
-40 594 -62 680 -301 1150 -216 426 -249 527 -249 758 0 248 59 461 174 620
93 132 230 229 391 279 123 38 320 48 473 23z"/>
<path d="M2225 4874 c-281 -59 -412 -226 -446 -570 -9 -93 -8 -125 5 -197 19
-100 40 -164 63 -189 21 -23 75 -23 96 0 22 24 21 54 -5 132 -18 53 -21 87
-21 185 2 191 46 326 135 412 59 58 121 82 236 94 77 8 101 15 115 31 21 25
22 57 1 86 -13 19 -23 22 -87 21 -40 -1 -81 -3 -92 -5z"/>
</g>
</svg>
